<svg xmlns="http://www.w3.org/2000/svg" xmlns:xlink="http://www.w3.org/1999/xlink" width="800" zoomAndPan="magnify" viewBox="0 0 600 599.999999" height="800" preserveAspectRatio="xMidYMid meet" version="1.2"><defs/><g id="9c3d914201"><rect x="0" width="600" y="0" height="599.999999" style="fill:#ffffff;fill-opacity:1;stroke:none;"/><rect x="0" width="600" y="0" height="599.999999" style="fill:#ffffff;fill-opacity:1;stroke:none;"/><g style="fill:#737373;fill-opacity:1;"><g transform="translate(46.402425, 299.426736)"><path style="stroke:none" d="M 31.734375 20.96875 C 28.703125 21.976562 25.113281 22.484375 20.96875 22.484375 C 19.84375 22.484375 18.660156 22.425781 17.421875 22.3125 C 13.273438 22.082031 9.96875 20.566406 7.5 17.765625 C 5.019531 15.015625 4.09375 11.757812 4.71875 8 C 5.164062 5.25 6.117188 2.914062 7.578125 1 C 9.035156 -0.90625 10.550781 -2.554688 12.125 -3.953125 C 15.550781 -6.984375 19.351562 -9.523438 23.53125 -11.578125 C 27.707031 -13.628906 31.929688 -15.550781 36.203125 -17.34375 L 38.390625 -18.265625 C 39.066406 -18.546875 39.726562 -18.828125 40.375 -19.109375 C 41.019531 -19.390625 41.648438 -19.695312 42.265625 -20.03125 L 43.109375 -20.453125 C 43.492188 -20.679688 43.910156 -20.921875 44.359375 -21.171875 C 44.816406 -21.421875 45.210938 -21.71875 45.546875 -22.0625 C 45.597656 -22.113281 45.734375 -22.289062 45.953125 -22.59375 C 46.179688 -22.90625 46.269531 -23.234375 46.21875 -23.578125 L 46.21875 -23.65625 L 45.96875 -24 C 45.800781 -24.164062 45.519531 -24.25 45.125 -24.25 C 45.007812 -24.25 44.867188 -24.21875 44.703125 -24.15625 C 44.816406 -24.21875 44.925781 -24.257812 45.03125 -24.28125 C 45.144531 -24.3125 45.257812 -24.328125 45.375 -24.328125 C 45.65625 -24.390625 45.921875 -24.445312 46.171875 -24.5 C 46.429688 -24.550781 46.671875 -24.578125 46.890625 -24.578125 C 47.679688 -24.578125 48.269531 -24.242188 48.65625 -23.578125 C 49 -23.015625 49.015625 -22.507812 48.703125 -22.0625 C 48.390625 -21.613281 47.925781 -21.160156 47.3125 -20.703125 L 46.984375 -20.453125 C 45.515625 -19.273438 43.9375 -18.25 42.25 -17.375 C 40.570312 -16.507812 38.863281 -15.65625 37.125 -14.8125 C 36.5625 -14.53125 35.984375 -14.25 35.390625 -13.96875 C 34.804688 -13.6875 34.207031 -13.410156 33.59375 -13.140625 C 29.945312 -11.222656 26.328125 -9.210938 22.734375 -7.109375 C 19.140625 -5.003906 15.910156 -2.46875 13.046875 0.5 C 10.523438 3.195312 8.925781 5.945312 8.25 8.75 C 7.46875 11.78125 7.972656 14.390625 9.765625 16.578125 C 11.554688 18.828125 14.222656 20.09375 17.765625 20.375 C 19.054688 20.488281 20.316406 20.546875 21.546875 20.546875 C 28.285156 20.546875 35.109375 18.890625 42.015625 15.578125 C 54.242188 9.734375 65.71875 1.144531 76.4375 -10.1875 L 76.78125 -10.53125 C 77 -10.800781 77.25 -11.078125 77.53125 -11.359375 C 77.8125 -11.640625 78.09375 -11.894531 78.375 -12.125 C 78.488281 -12.175781 78.628906 -12.257812 78.796875 -12.375 C 78.960938 -12.488281 79.101562 -12.546875 79.21875 -12.546875 C 79.382812 -12.265625 79.382812 -11.96875 79.21875 -11.65625 C 79.050781 -11.351562 78.910156 -11.113281 78.796875 -10.9375 C 75.429688 -7.519531 72.234375 -4.394531 69.203125 -1.5625 C 66.171875 1.269531 63 3.894531 59.6875 6.3125 C 52.28125 11.8125 44.535156 16.132812 36.453125 19.28125 C 34.941406 19.84375 33.367188 20.40625 31.734375 20.96875 Z M 27.609375 -19.609375 C 26.316406 -19.273438 25 -19.109375 23.65625 -19.109375 C 22.195312 -19.109375 20.738281 -19.304688 19.28125 -19.703125 C 16.582031 -20.367188 14.617188 -21.519531 13.390625 -23.15625 C 12.210938 -24.78125 11.789062 -26.769531 12.125 -29.125 C 12.625 -32.601562 14.363281 -35.890625 17.34375 -38.984375 C 27.050781 -49.078125 38.21875 -55.445312 50.84375 -58.09375 C 51.019531 -58.09375 51.21875 -58.117188 51.4375 -58.171875 C 51.601562 -58.222656 51.753906 -58.265625 51.890625 -58.296875 C 52.035156 -58.328125 52.191406 -58.367188 52.359375 -58.421875 C 53.484375 -58.535156 54.550781 -58.59375 55.5625 -58.59375 C 60.164062 -58.59375 63.757812 -57.242188 66.34375 -54.546875 C 69.207031 -51.578125 70.328125 -47.367188 69.703125 -41.921875 C 69.316406 -38.328125 68.53125 -35.492188 67.34375 -33.421875 C 66.894531 -32.640625 66.363281 -32.25 65.75 -32.25 C 65.414062 -32.25 65.050781 -32.359375 64.65625 -32.578125 C 63.414062 -33.253906 63.050781 -34.265625 63.5625 -35.609375 C 63.726562 -36.117188 63.910156 -36.609375 64.109375 -37.078125 C 64.304688 -37.554688 64.488281 -38.050781 64.65625 -38.5625 C 65.050781 -39.570312 65.429688 -40.582031 65.796875 -41.59375 C 66.160156 -42.601562 66.484375 -43.640625 66.765625 -44.703125 C 67.546875 -48.347656 66.984375 -51.238281 65.078125 -53.375 C 63.222656 -55.445312 60.332031 -56.484375 56.40625 -56.484375 L 55.984375 -56.484375 C 53.398438 -56.484375 50.59375 -55.925781 47.5625 -54.8125 C 34.65625 -50.039062 24.863281 -42.660156 18.1875 -32.671875 L 17.59375 -31.90625 C 17.09375 -31.175781 16.628906 -30.414062 16.203125 -29.625 C 15.785156 -28.84375 15.578125 -28.003906 15.578125 -27.109375 C 15.578125 -26.210938 15.96875 -25.257812 16.75 -24.25 C 18.488281 -22.226562 20.957031 -21.21875 24.15625 -21.21875 C 24.78125 -21.21875 25.382812 -21.242188 25.96875 -21.296875 C 26.5625 -21.359375 27.109375 -21.414062 27.609375 -21.46875 C 29.179688 -21.6875 30.753906 -21.921875 32.328125 -22.171875 C 33.898438 -22.429688 35.472656 -22.675781 37.046875 -22.90625 C 38.222656 -23.125 39.414062 -23.332031 40.625 -23.53125 C 41.832031 -23.726562 43.023438 -23.9375 44.203125 -24.15625 C 44.140625 -24.101562 44.082031 -24.078125 44.03125 -24.078125 C 43.632812 -24.023438 43.28125 -23.953125 42.96875 -23.859375 C 42.664062 -23.773438 42.347656 -23.679688 42.015625 -23.578125 C 42.015625 -23.578125 41.71875 -23.476562 41.125 -23.28125 C 40.53125 -23.082031 40.066406 -22.925781 39.734375 -22.8125 C 39.285156 -22.695312 38.835938 -22.566406 38.390625 -22.421875 C 37.941406 -22.285156 37.460938 -22.132812 36.953125 -21.96875 C 35.441406 -21.582031 33.898438 -21.191406 32.328125 -20.796875 C 30.753906 -20.398438 29.179688 -20.003906 27.609375 -19.609375 Z M 27.609375 -19.609375 "/></g></g><g style="fill:#737373;fill-opacity:1;"><g transform="translate(123.508392, 299.426736)"><path style="stroke:none" d="M 28.625 -14.90625 L 28.796875 -14.5625 C 28.796875 -14.34375 28.523438 -14.175781 27.984375 -14.0625 C 27.453125 -13.945312 27.019531 -13.863281 26.6875 -13.8125 C 26.351562 -13.75 26.15625 -13.71875 26.09375 -13.71875 C 25.3125 -13.5 24.523438 -13.289062 23.734375 -13.09375 C 22.953125 -12.894531 22.171875 -12.65625 21.390625 -12.375 C 18.410156 -11.476562 15.851562 -10.492188 13.71875 -9.421875 C 12.09375 -8.585938 10.578125 -7.609375 9.171875 -6.484375 C 7.773438 -5.359375 6.878906 -3.644531 6.484375 -1.34375 C 5.691406 2.863281 3.191406 6.789062 -1.015625 10.4375 C -2.640625 11.84375 -4.296875 12.546875 -5.984375 12.546875 C -7.160156 12.546875 -8.171875 12.179688 -9.015625 11.453125 C -10.128906 10.492188 -10.6875 9.226562 -10.6875 7.65625 C -10.6875 6.082031 -10.097656 4.597656 -8.921875 3.203125 C -7.460938 1.347656 -5.734375 -0.25 -3.734375 -1.59375 C -1.742188 -2.945312 0.285156 -4.15625 2.359375 -5.21875 C 3.648438 -5.894531 4.347656 -6.707031 4.453125 -7.65625 C 4.566406 -8.613281 4.117188 -9.847656 3.109375 -11.359375 C 2.722656 -11.867188 2.359375 -12.390625 2.015625 -12.921875 C 1.679688 -13.453125 1.347656 -14 1.015625 -14.5625 L 0.421875 -15.578125 C -0.867188 -17.648438 -0.867188 -19.332031 0.421875 -20.625 C 4.742188 -25 10.160156 -27.382812 16.671875 -27.78125 L 17.09375 -27.78125 C 18.550781 -27.78125 19.671875 -27.332031 20.453125 -26.4375 C 21.296875 -25.476562 21.550781 -24.1875 21.21875 -22.5625 C 20.820312 -20.875 19.78125 -19.414062 18.09375 -18.1875 C 17.988281 -18.070312 17.835938 -17.957031 17.640625 -17.84375 C 17.441406 -17.726562 17.226562 -17.671875 17 -17.671875 C 16.78125 -17.671875 16.53125 -17.785156 16.25 -18.015625 C 15.914062 -18.242188 15.773438 -18.492188 15.828125 -18.765625 C 15.878906 -19.046875 15.988281 -19.382812 16.15625 -19.78125 C 16.5 -20.394531 16.820312 -21 17.125 -21.59375 C 17.4375 -22.1875 17.757812 -22.757812 18.09375 -23.3125 C 18.269531 -23.65625 18.398438 -23.992188 18.484375 -24.328125 C 18.566406 -24.660156 18.46875 -25.054688 18.1875 -25.515625 C 17.84375 -26.015625 17.363281 -26.265625 16.75 -26.265625 C 16.632812 -26.265625 16.4375 -26.238281 16.15625 -26.1875 L 15.90625 -26.1875 C 10.519531 -25.625 6.203125 -23.570312 2.953125 -20.03125 C 1.878906 -18.851562 2.019531 -17.476562 3.375 -15.90625 C 4.101562 -15.070312 4.773438 -14.148438 5.390625 -13.140625 C 6.003906 -12.066406 6.59375 -11.175781 7.15625 -10.46875 C 7.71875 -9.769531 8.445312 -9.421875 9.34375 -9.421875 C 9.851562 -9.421875 10.472656 -9.59375 11.203125 -9.9375 C 13.328125 -10.882812 15.5 -11.722656 17.71875 -12.453125 C 19.9375 -13.179688 22.03125 -13.828125 24 -14.390625 C 24.332031 -14.503906 24.847656 -14.644531 25.546875 -14.8125 C 26.253906 -14.976562 26.914062 -15.0625 27.53125 -15.0625 C 27.863281 -15.0625 28.113281 -15.035156 28.28125 -14.984375 C 28.457031 -14.929688 28.570312 -14.90625 28.625 -14.90625 Z M -3.703125 10.265625 C 0.785156 7.910156 3.535156 3.535156 4.546875 -2.859375 L 4.046875 -3.109375 C 3.984375 -2.890625 3.671875 -2.625 3.109375 -2.3125 C 2.546875 -2.007812 2.039062 -1.742188 1.59375 -1.515625 C 1.03125 -1.234375 0.695312 -1.035156 0.59375 -0.921875 C -0.757812 0.0234375 -1.96875 0.953125 -3.03125 1.859375 L -3.625 2.359375 C -4.519531 3.140625 -5.457031 4.050781 -6.4375 5.09375 C -7.414062 6.132812 -7.960938 7.242188 -8.078125 8.421875 C -8.140625 9.148438 -7.972656 9.738281 -7.578125 10.1875 C -7.179688 10.582031 -6.59375 10.78125 -5.8125 10.78125 C -5.363281 10.78125 -4.957031 10.722656 -4.59375 10.609375 C -4.226562 10.492188 -3.929688 10.378906 -3.703125 10.265625 Z M -3.703125 10.265625 "/></g></g><g style="fill:#737373;fill-opacity:1;"><g transform="translate(149.855732, 299.426736)"><path style="stroke:none" d="M 39.234375 -15.65625 C 39.898438 -15.65625 40.53125 -15.597656 41.125 -15.484375 C 41.71875 -15.378906 42.066406 -15.269531 42.171875 -15.15625 C 42.234375 -15.15625 42.125 -15.039062 41.84375 -14.8125 C 41.164062 -14.425781 40.421875 -14.117188 39.609375 -13.890625 C 38.796875 -13.660156 37.96875 -13.460938 37.125 -13.296875 C 36.625 -13.191406 36.09375 -13.082031 35.53125 -12.96875 C 34.96875 -12.851562 34.40625 -12.679688 33.84375 -12.453125 C 32.550781 -11.953125 31.242188 -11.460938 29.921875 -10.984375 C 28.609375 -10.503906 27.304688 -10.015625 26.015625 -9.515625 C 24.773438 -9.003906 23.789062 -8.078125 23.0625 -6.734375 C 19.363281 -0.335938 14.929688 4.375 9.765625 7.40625 L 9.421875 7.578125 C 8.804688 7.972656 8.175781 8.320312 7.53125 8.625 C 6.882812 8.9375 6.226562 9.09375 5.5625 9.09375 C 4.550781 9.09375 3.679688 8.671875 2.953125 7.828125 C 1.878906 6.703125 1.59375 5.703125 2.09375 4.828125 C 2.601562 3.960938 3.222656 3.164062 3.953125 2.4375 C 4.234375 2.21875 4.457031 2.023438 4.625 1.859375 C 8.101562 -1.796875 12.789062 -4.96875 18.6875 -7.65625 C 20.3125 -8.382812 21.390625 -9.410156 21.921875 -10.734375 C 22.460938 -12.054688 22.789062 -13.613281 22.90625 -15.40625 C 22.957031 -16.582031 22.726562 -17.453125 22.21875 -18.015625 C 21.832031 -18.410156 21.328125 -18.609375 20.703125 -18.609375 C 20.253906 -18.609375 19.75 -18.492188 19.1875 -18.265625 C 17.0625 -17.484375 15.210938 -16.40625 13.640625 -15.03125 C 12.066406 -13.65625 10.632812 -12.238281 9.34375 -10.78125 C 7.550781 -8.8125 5.488281 -6.046875 3.15625 -2.484375 C 0.820312 1.078125 -1.628906 5.144531 -4.203125 9.71875 C -6.785156 14.289062 -9.394531 19.085938 -12.03125 24.109375 C -14.675781 29.140625 -17.175781 34.109375 -19.53125 39.015625 C -21.882812 43.929688 -23.988281 48.519531 -25.84375 52.78125 C -27.695312 57.050781 -29.15625 60.703125 -30.21875 63.734375 C -30.382812 64.179688 -30.566406 64.613281 -30.765625 65.03125 C -30.960938 65.457031 -31.144531 65.894531 -31.3125 66.34375 C -31.707031 67.238281 -32.085938 68.148438 -32.453125 69.078125 C -32.816406 70.003906 -33.023438 71.03125 -33.078125 72.15625 C -33.191406 73.21875 -33.785156 73.75 -34.859375 73.75 C -35.242188 73.75 -35.660156 73.632812 -36.109375 73.40625 C -36.566406 73.125 -36.878906 72.84375 -37.046875 72.5625 C -37.210938 72.226562 -37.238281 71.878906 -37.125 71.515625 C -37.007812 71.148438 -36.898438 70.800781 -36.796875 70.46875 L -36.625 70.125 C -35.726562 67.65625 -34.453125 64.484375 -32.796875 60.609375 C -31.140625 56.742188 -29.285156 52.453125 -27.234375 47.734375 C -25.179688 43.015625 -23.03125 38.171875 -20.78125 33.203125 C -18.539062 28.242188 -16.367188 23.421875 -14.265625 18.734375 C -12.160156 14.046875 -10.253906 9.78125 -8.546875 5.9375 C -6.835938 2.09375 -5.445312 -1.007812 -4.375 -3.375 C -2.414062 -7.75 -0.410156 -12.125 1.640625 -16.5 C 3.691406 -20.875 5.695312 -25.222656 7.65625 -29.546875 L 8.078125 -30.390625 C 8.304688 -30.785156 8.445312 -31.234375 8.5 -31.734375 C 8.5625 -32.242188 8.617188 -32.75 8.671875 -33.25 C 8.785156 -34.09375 8.9375 -34.878906 9.125 -35.609375 C 9.320312 -36.335938 9.789062 -36.925781 10.53125 -37.375 C 10.695312 -37.488281 10.847656 -37.613281 10.984375 -37.75 C 11.128906 -37.894531 11.253906 -38.050781 11.359375 -38.21875 C 11.535156 -38.445312 11.707031 -38.644531 11.875 -38.8125 C 12.039062 -38.976562 12.234375 -39.0625 12.453125 -39.0625 C 12.734375 -39.0625 13.046875 -38.945312 13.390625 -38.71875 C 14.003906 -38.269531 14.28125 -37.835938 14.21875 -37.421875 C 14.164062 -37.003906 14 -36.515625 13.71875 -35.953125 C 13.601562 -35.722656 13.519531 -35.550781 13.46875 -35.4375 C 11.957031 -31.957031 10.441406 -28.476562 8.921875 -25 C 7.410156 -21.519531 5.867188 -18.039062 4.296875 -14.5625 L 0.84375 -6.65625 C 0.726562 -6.375 0.597656 -6.0625 0.453125 -5.71875 C 0.316406 -5.382812 0.191406 -5.050781 0.078125 -4.71875 L -0.34375 -3.78125 L 0.171875 -3.453125 C 1.117188 -4.347656 2.015625 -5.3125 2.859375 -6.34375 C 3.703125 -7.382812 4.515625 -8.410156 5.296875 -9.421875 C 6.085938 -10.429688 6.914062 -11.457031 7.78125 -12.5 C 8.65625 -13.539062 9.570312 -14.535156 10.53125 -15.484375 C 11.707031 -16.554688 12.84375 -17.507812 13.9375 -18.34375 C 15.03125 -19.1875 16.222656 -19.890625 17.515625 -20.453125 C 18.015625 -20.617188 18.515625 -20.785156 19.015625 -20.953125 C 19.523438 -21.128906 20.035156 -21.21875 20.546875 -21.21875 C 21.609375 -21.21875 22.644531 -20.820312 23.65625 -20.03125 C 24.71875 -19.132812 25.332031 -18.195312 25.5 -17.21875 C 25.675781 -16.238281 25.734375 -15.210938 25.671875 -14.140625 C 25.671875 -13.859375 25.65625 -13.601562 25.625 -13.375 C 25.601562 -13.15625 25.566406 -12.90625 25.515625 -12.625 L 25.421875 -11.78125 L 25.9375 -11.625 C 25.988281 -11.675781 26.363281 -11.785156 27.0625 -11.953125 C 27.769531 -12.117188 28.347656 -12.257812 28.796875 -12.375 C 29.410156 -12.539062 29.742188 -12.625 29.796875 -12.625 L 31.0625 -13.140625 C 31.570312 -13.304688 32.0625 -13.472656 32.53125 -13.640625 C 33.007812 -13.804688 33.472656 -13.945312 33.921875 -14.0625 C 34.203125 -14.175781 34.46875 -14.273438 34.71875 -14.359375 C 34.976562 -14.441406 35.25 -14.539062 35.53125 -14.65625 C 36.03125 -14.820312 36.546875 -14.988281 37.078125 -15.15625 C 37.617188 -15.320312 38.164062 -15.460938 38.71875 -15.578125 C 38.832031 -15.628906 39.003906 -15.65625 39.234375 -15.65625 Z M 7.40625 7.234375 C 12.0625 5.046875 15.820312 1.0625 18.6875 -4.71875 L 18.1875 -5.046875 C 18.125 -4.941406 17.953125 -4.832031 17.671875 -4.71875 C 17.398438 -4.601562 17.148438 -4.519531 16.921875 -4.46875 C 16.640625 -4.351562 16.441406 -4.265625 16.328125 -4.203125 C 15.546875 -3.816406 14.789062 -3.425781 14.0625 -3.03125 C 12.488281 -2.1875 11.113281 -1.34375 9.9375 -0.5 C 9.769531 -0.394531 9.585938 -0.269531 9.390625 -0.125 C 9.191406 0.0078125 9.007812 0.132812 8.84375 0.25 C 7.769531 0.976562 6.726562 1.765625 5.71875 2.609375 C 4.707031 3.453125 3.976562 4.4375 3.53125 5.5625 C 3.3125 6.289062 3.367188 6.847656 3.703125 7.234375 C 3.984375 7.628906 4.488281 7.828125 5.21875 7.828125 C 5.613281 7.828125 6.019531 7.769531 6.4375 7.65625 C 6.863281 7.550781 7.1875 7.410156 7.40625 7.234375 Z M 7.40625 7.234375 "/></g></g><g style="fill:#737373;fill-opacity:1;"><g transform="translate(187.314418, 299.426736)"><path style="stroke:none" d="M 43.265625 -16.421875 C 43.546875 -16.359375 43.71875 -16.300781 43.78125 -16.25 C 43.945312 -15.96875 43.832031 -15.601562 43.4375 -15.15625 C 37.65625 -9.09375 30.613281 -3.757812 22.3125 0.84375 L 21.71875 1.09375 C 21.4375 1.320312 21.113281 1.519531 20.75 1.6875 C 20.382812 1.851562 20.003906 1.9375 19.609375 1.9375 C 19.054688 1.9375 18.46875 1.679688 17.84375 1.171875 C 17.113281 0.503906 16.765625 -0.117188 16.796875 -0.703125 C 16.828125 -1.296875 16.953125 -1.929688 17.171875 -2.609375 C 17.234375 -2.722656 17.289062 -2.832031 17.34375 -2.9375 C 17.394531 -3.050781 17.421875 -3.164062 17.421875 -3.28125 C 17.929688 -5.082031 18.5625 -6.804688 19.3125 -8.453125 C 20.070312 -10.109375 20.847656 -11.695312 21.640625 -13.21875 C 21.640625 -13.21875 21.820312 -13.550781 22.1875 -14.21875 C 22.550781 -14.894531 22.941406 -15.613281 23.359375 -16.375 C 23.785156 -17.132812 24.082031 -17.65625 24.25 -17.9375 C 24.25 -17.988281 24.359375 -18.15625 24.578125 -18.4375 C 25.085938 -19.164062 25.523438 -19.921875 25.890625 -20.703125 C 26.253906 -21.492188 26.351562 -22.113281 26.1875 -22.5625 C 26.070312 -22.84375 25.898438 -23.039062 25.671875 -23.15625 C 25.503906 -23.207031 25.363281 -23.234375 25.25 -23.234375 C 24.695312 -23.234375 24.082031 -22.925781 23.40625 -22.3125 C 22.726562 -21.695312 22.390625 -21.390625 22.390625 -21.390625 C 21.992188 -20.929688 21.597656 -20.363281 21.203125 -19.6875 C 20.816406 -19.019531 20.597656 -18.265625 20.546875 -17.421875 L 20.546875 -17.09375 C 20.546875 -16.863281 20.53125 -16.609375 20.5 -16.328125 C 20.46875 -16.046875 20.367188 -15.90625 20.203125 -15.90625 C 20.148438 -15.90625 20.023438 -15.945312 19.828125 -16.03125 C 19.628906 -16.113281 19.363281 -16.328125 19.03125 -16.671875 L 18.78125 -16.921875 L 18.265625 -16.328125 C 18.097656 -16.210938 17.941406 -16.070312 17.796875 -15.90625 C 17.660156 -15.738281 17.535156 -15.597656 17.421875 -15.484375 C 16.753906 -14.753906 16.125 -14.039062 15.53125 -13.34375 C 14.945312 -12.644531 14.34375 -11.957031 13.71875 -11.28125 C 12.375 -9.707031 11 -8.148438 9.59375 -6.609375 C 8.195312 -5.066406 6.679688 -3.617188 5.046875 -2.265625 L 4.46875 -1.765625 C 3.957031 -1.316406 3.421875 -0.894531 2.859375 -0.5 C 2.296875 -0.113281 1.679688 0.078125 1.015625 0.078125 C 0.453125 0.078125 -0.132812 -0.113281 -0.75 -0.5 C -1.9375 -1.34375 -2.5 -2.328125 -2.4375 -3.453125 C -2.382812 -4.578125 -2.21875 -5.671875 -1.9375 -6.734375 L -1.859375 -7.234375 C -0.503906 -12.628906 1.910156 -17.257812 5.390625 -21.125 C 7.804688 -23.820312 10.664062 -25.171875 13.96875 -25.171875 L 14.234375 -25.171875 C 14.960938 -25.171875 15.660156 -25.128906 16.328125 -25.046875 C 17.003906 -24.960938 17.507812 -24.695312 17.84375 -24.25 C 18.851562 -22.789062 19.804688 -22.0625 20.703125 -22.0625 C 21.160156 -22.0625 21.554688 -22.203125 21.890625 -22.484375 C 22.222656 -22.765625 22.585938 -23.070312 22.984375 -23.40625 L 23.234375 -23.65625 C 23.742188 -24.164062 24.304688 -24.554688 24.921875 -24.828125 C 25.203125 -24.941406 25.46875 -25.039062 25.71875 -25.125 C 25.96875 -25.207031 26.207031 -25.25 26.4375 -25.25 C 26.832031 -25.25 27.222656 -25.109375 27.609375 -24.828125 C 28.054688 -24.441406 28.265625 -24.050781 28.234375 -23.65625 C 28.210938 -23.257812 28.085938 -22.835938 27.859375 -22.390625 C 26.910156 -20.316406 25.957031 -18.28125 25 -16.28125 C 24.050781 -14.289062 23.097656 -12.316406 22.140625 -10.359375 L 20.625 -7.15625 C 20.289062 -6.539062 19.992188 -5.894531 19.734375 -5.21875 C 19.484375 -4.539062 19.25 -3.894531 19.03125 -3.28125 L 18.609375 -2.015625 C 18.378906 -1.453125 18.347656 -1.03125 18.515625 -0.75 C 18.628906 -0.582031 18.800781 -0.445312 19.03125 -0.34375 C 19.195312 -0.28125 19.390625 -0.25 19.609375 -0.25 C 20.171875 -0.25 20.816406 -0.414062 21.546875 -0.75 C 22.273438 -1.09375 22.78125 -1.347656 23.0625 -1.515625 C 24.863281 -2.753906 26.632812 -4.003906 28.375 -5.265625 C 30.113281 -6.523438 31.796875 -7.773438 33.421875 -9.015625 C 33.984375 -9.398438 34.515625 -9.800781 35.015625 -10.21875 C 35.523438 -10.644531 36.0625 -11.054688 36.625 -11.453125 C 36.957031 -11.734375 37.304688 -12.023438 37.671875 -12.328125 C 38.035156 -12.640625 38.414062 -12.9375 38.8125 -13.21875 C 38.976562 -13.382812 39.144531 -13.535156 39.3125 -13.671875 C 39.476562 -13.816406 39.675781 -13.945312 39.90625 -14.0625 C 40.1875 -14.34375 40.492188 -14.609375 40.828125 -14.859375 C 41.171875 -15.109375 41.507812 -15.375 41.84375 -15.65625 L 42.171875 -15.828125 C 42.347656 -15.941406 42.53125 -16.066406 42.71875 -16.203125 C 42.914062 -16.347656 43.097656 -16.421875 43.265625 -16.421875 Z M 18.6875 -19.609375 C 19.25 -20.234375 19.222656 -20.960938 18.609375 -21.796875 C 17.878906 -22.753906 17.007812 -23.234375 16 -23.234375 C 15.882812 -23.234375 15.769531 -23.234375 15.65625 -23.234375 C 14.25 -22.953125 13.015625 -22.503906 11.953125 -21.890625 C 9.484375 -20.429688 7.488281 -18.609375 5.96875 -16.421875 C 4.457031 -14.234375 3.140625 -12.070312 2.015625 -9.9375 C 1.910156 -9.707031 1.785156 -9.476562 1.640625 -9.25 C 1.503906 -9.03125 1.378906 -8.8125 1.265625 -8.59375 C 0.921875 -8.082031 0.609375 -7.546875 0.328125 -6.984375 C 0.0546875 -6.421875 -0.164062 -5.804688 -0.34375 -5.140625 C -0.394531 -4.859375 -0.421875 -4.351562 -0.421875 -3.625 C -0.421875 -2.894531 -0.222656 -2.359375 0.171875 -2.015625 C 0.335938 -1.796875 0.5625 -1.6875 0.84375 -1.6875 C 1.0625 -1.6875 1.34375 -1.769531 1.6875 -1.9375 C 4.09375 -3.445312 6.234375 -5.238281 8.109375 -7.3125 C 9.992188 -9.394531 11.804688 -11.503906 13.546875 -13.640625 C 14.390625 -14.648438 15.234375 -15.660156 16.078125 -16.671875 C 16.921875 -17.679688 17.789062 -18.660156 18.6875 -19.609375 Z M 18.6875 -19.609375 "/></g></g><g style="fill:#737373;fill-opacity:1;"><g transform="translate(228.308524, 299.426736)"><path style="stroke:none" d="M 33.921875 -12.546875 C 34.035156 -12.378906 34.050781 -12.140625 33.96875 -11.828125 C 33.882812 -11.515625 33.703125 -11.25 33.421875 -11.03125 C 31.066406 -9.125 28.554688 -7.242188 25.890625 -5.390625 C 23.222656 -3.535156 20.34375 -1.847656 17.25 -0.328125 C 14.164062 1.179688 10.828125 2.328125 7.234375 3.109375 C 6.222656 3.335938 5.269531 3.453125 4.375 3.453125 C 2.132812 3.453125 0.171875 2.664062 -1.515625 1.09375 C -3.929688 -1.144531 -4.519531 -3.894531 -3.28125 -7.15625 C -0.03125 -15.6875 6.195312 -22.195312 15.40625 -26.6875 C 16.46875 -27.25 17.535156 -27.53125 18.609375 -27.53125 C 20.285156 -27.53125 21.742188 -26.800781 22.984375 -25.34375 C 23.878906 -24.382812 24.351562 -23.414062 24.40625 -22.4375 C 24.46875 -21.457031 24.34375 -20.546875 24.03125 -19.703125 C 23.726562 -18.859375 23.378906 -18.179688 22.984375 -17.671875 C 22.535156 -16.941406 22.015625 -16.3125 21.421875 -15.78125 C 20.835938 -15.25 20.289062 -14.816406 19.78125 -14.484375 L 19.609375 -14.3125 C 19.441406 -14.195312 19.234375 -14.039062 18.984375 -13.84375 C 18.734375 -13.644531 18.492188 -13.546875 18.265625 -13.546875 C 18.046875 -13.609375 17.878906 -13.695312 17.765625 -13.8125 C 17.597656 -14.09375 17.664062 -14.539062 17.96875 -15.15625 C 18.28125 -15.769531 18.675781 -16.398438 19.15625 -17.046875 C 19.632812 -17.691406 20.039062 -18.238281 20.375 -18.6875 C 21.050781 -19.476562 21.414062 -19.957031 21.46875 -20.125 C 21.46875 -20.289062 21.523438 -20.484375 21.640625 -20.703125 C 21.804688 -21.097656 21.914062 -21.546875 21.96875 -22.046875 C 22.03125 -22.554688 21.78125 -23.066406 21.21875 -23.578125 C 20.65625 -24.023438 20.066406 -24.25 19.453125 -24.25 C 18.890625 -24.25 18.242188 -24.050781 17.515625 -23.65625 C 9.484375 -19.394531 3.585938 -13.109375 -0.171875 -4.796875 C -1.066406 -2.773438 -0.785156 -1.148438 0.671875 0.078125 C 1.734375 1.035156 3.109375 1.515625 4.796875 1.515625 C 5.242188 1.515625 5.691406 1.488281 6.140625 1.4375 C 9.234375 1.09375 12.039062 0.347656 14.5625 -0.796875 C 17.09375 -1.953125 19.28125 -3.085938 21.125 -4.203125 C 22.976562 -5.273438 25.054688 -6.648438 27.359375 -8.328125 C 27.691406 -8.554688 28.015625 -8.796875 28.328125 -9.046875 C 28.640625 -9.296875 28.9375 -9.535156 29.21875 -9.765625 C 29.78125 -10.273438 30.367188 -10.753906 30.984375 -11.203125 C 31.597656 -11.648438 32.242188 -12.039062 32.921875 -12.375 C 33.203125 -12.539062 33.453125 -12.625 33.671875 -12.625 C 33.785156 -12.625 33.867188 -12.597656 33.921875 -12.546875 Z M 33.921875 -12.546875 "/></g></g><g style="fill:#737373;fill-opacity:1;"><g transform="translate(260.464065, 299.426736)"><path style="stroke:none" d="M 29.296875 -13.390625 C 29.460938 -13.273438 29.546875 -13.019531 29.546875 -12.625 C 29.546875 -12.226562 29.304688 -11.863281 28.828125 -11.53125 C 28.359375 -11.195312 27.984375 -10.914062 27.703125 -10.6875 C 26.742188 -9.84375 25.757812 -9.03125 24.75 -8.25 C 23.738281 -7.46875 22.726562 -6.710938 21.71875 -5.984375 C 19.582031 -4.460938 17.320312 -3.113281 14.9375 -1.9375 C 12.550781 -0.757812 10.015625 0.191406 7.328125 0.921875 C 6.203125 1.203125 5.019531 1.34375 3.78125 1.34375 C 2.550781 1.34375 1.316406 0.78125 0.078125 -0.34375 C -1.148438 -1.40625 -1.832031 -2.539062 -1.96875 -3.75 C -2.113281 -4.957031 -2.019531 -6.117188 -1.6875 -7.234375 C -0.675781 -11.054688 0.753906 -14.625 2.609375 -17.9375 C 4.460938 -21.25 6.679688 -24.304688 9.265625 -27.109375 C 9.546875 -27.503906 9.894531 -27.867188 10.3125 -28.203125 C 10.726562 -28.535156 11.300781 -28.421875 12.03125 -27.859375 C 12.820312 -27.242188 13.078125 -26.695312 12.796875 -26.21875 C 12.515625 -25.75 12.257812 -25.316406 12.03125 -24.921875 C 10.238281 -22.054688 8.5 -19.191406 6.8125 -16.328125 C 5.132812 -13.460938 3.648438 -10.460938 2.359375 -7.328125 C 2.128906 -6.765625 1.847656 -6.171875 1.515625 -5.546875 C 1.179688 -4.929688 1.015625 -4.300781 1.015625 -3.65625 C 1.015625 -3.007812 1.320312 -2.378906 1.9375 -1.765625 C 2.945312 -0.703125 4.066406 -0.253906 5.296875 -0.421875 C 6.535156 -0.585938 7.660156 -0.785156 8.671875 -1.015625 C 10.859375 -1.515625 12.878906 -2.269531 14.734375 -3.28125 C 16.585938 -4.289062 18.351562 -5.414062 20.03125 -6.65625 C 20.257812 -6.820312 20.820312 -7.296875 21.71875 -8.078125 C 22.613281 -8.867188 23.59375 -9.710938 24.65625 -10.609375 C 25.726562 -11.503906 26.710938 -12.234375 27.609375 -12.796875 C 28.503906 -13.359375 29.066406 -13.554688 29.296875 -13.390625 Z M 15.75 -31.828125 C 14.457031 -31.710938 13.640625 -32.300781 13.296875 -33.59375 C 13.015625 -34.71875 13.125 -35.515625 13.625 -35.984375 C 14.132812 -36.460938 14.867188 -36.734375 15.828125 -36.796875 C 16.503906 -36.847656 17.09375 -36.703125 17.59375 -36.359375 C 18.101562 -36.023438 18.46875 -35.4375 18.6875 -34.59375 C 18.75 -33.644531 18.5 -32.972656 17.9375 -32.578125 C 17.375 -32.179688 16.644531 -31.929688 15.75 -31.828125 Z M 15.75 -31.828125 "/></g></g><g style="fill:#737373;fill-opacity:1;"><g transform="translate(288.242402, 299.426736)"><path style="stroke:none" d="M 30.21875 -13.640625 C 30.664062 -13.578125 30.921875 -13.492188 30.984375 -13.390625 C 31.035156 -13.046875 30.835938 -12.734375 30.390625 -12.453125 C 29.941406 -12.171875 29.4375 -11.929688 28.875 -11.734375 C 28.3125 -11.546875 27.890625 -11.421875 27.609375 -11.359375 C 26.148438 -10.910156 24.691406 -10.6875 23.234375 -10.6875 C 21.890625 -10.6875 20.570312 -10.828125 19.28125 -11.109375 C 18.601562 -11.273438 18.015625 -11.359375 17.515625 -11.359375 C 16.160156 -11.359375 15.175781 -10.660156 14.5625 -9.265625 C 12.9375 -5.671875 10.351562 -2.722656 6.8125 -0.421875 C 6.363281 -0.140625 5.84375 0.125 5.25 0.375 C 4.664062 0.625 4.039062 0.75 3.375 0.75 C 2.53125 0.75 1.710938 0.5 0.921875 0 C -0.191406 -0.726562 -0.832031 -1.625 -1 -2.6875 C -1.175781 -3.757812 -1.234375 -4.859375 -1.171875 -5.984375 C -0.835938 -11.703125 1.40625 -16.695312 5.5625 -20.96875 C 6.0625 -21.46875 6.5625 -21.96875 7.0625 -22.46875 C 7.570312 -22.976562 8.082031 -23.488281 8.59375 -24 C 9.425781 -24.726562 10.347656 -25.09375 11.359375 -25.09375 C 12.035156 -25.09375 12.710938 -24.953125 13.390625 -24.671875 C 14.960938 -23.941406 16.023438 -22.507812 16.578125 -20.375 C 17.085938 -18.570312 17.117188 -16.832031 16.671875 -15.15625 C 16.441406 -14.195312 16.523438 -13.492188 16.921875 -13.046875 C 17.367188 -12.546875 18.179688 -12.265625 19.359375 -12.203125 C 20.085938 -12.203125 20.789062 -12.203125 21.46875 -12.203125 C 23.09375 -12.203125 24.582031 -12.316406 25.9375 -12.546875 C 26.207031 -12.546875 26.484375 -12.597656 26.765625 -12.703125 C 27.046875 -12.816406 27.328125 -12.960938 27.609375 -13.140625 C 27.953125 -13.242188 28.304688 -13.363281 28.671875 -13.5 C 29.035156 -13.644531 29.410156 -13.71875 29.796875 -13.71875 C 29.972656 -13.71875 30.113281 -13.691406 30.21875 -13.640625 Z M 12.796875 -12.796875 C 12.796875 -12.960938 12.796875 -13.128906 12.796875 -13.296875 C 12.628906 -13.578125 12.457031 -13.800781 12.28125 -13.96875 C 12.113281 -14.144531 11.945312 -14.316406 11.78125 -14.484375 C 11.394531 -14.867188 11.003906 -15.242188 10.609375 -15.609375 C 10.210938 -15.972656 9.789062 -16.351562 9.34375 -16.75 C 9.226562 -16.8125 9.0625 -16.984375 8.84375 -17.265625 C 8.613281 -17.535156 8.375 -17.785156 8.125 -18.015625 C 7.875 -18.242188 7.609375 -18.359375 7.328125 -18.359375 C 6.984375 -18.359375 6.671875 -18.1875 6.390625 -17.84375 C 4.765625 -15.539062 3.429688 -13.265625 2.390625 -11.015625 C 1.359375 -8.773438 0.8125 -6.3125 0.75 -3.625 C 0.75 -2.71875 1.003906 -2.015625 1.515625 -1.515625 C 1.847656 -1.234375 2.269531 -1.09375 2.78125 -1.09375 C 3.175781 -1.09375 3.597656 -1.207031 4.046875 -1.4375 C 6.453125 -2.613281 8.300781 -4.210938 9.59375 -6.234375 C 10.882812 -8.253906 11.925781 -10.1875 12.71875 -12.03125 C 12.769531 -12.144531 12.796875 -12.398438 12.796875 -12.796875 Z M 13.46875 -16.15625 C 13.632812 -16.894531 13.71875 -17.640625 13.71875 -18.390625 C 13.71875 -19.148438 13.328125 -19.894531 12.546875 -20.625 C 12.316406 -20.90625 12.035156 -21.046875 11.703125 -21.046875 C 11.253906 -21.046875 10.847656 -20.875 10.484375 -20.53125 C 10.117188 -20.195312 9.878906 -19.890625 9.765625 -19.609375 C 9.484375 -18.773438 9.59375 -18.0625 10.09375 -17.46875 C 10.601562 -16.875 11.164062 -16.328125 11.78125 -15.828125 C 11.945312 -15.710938 12.128906 -15.582031 12.328125 -15.4375 C 12.523438 -15.300781 12.707031 -15.148438 12.875 -14.984375 L 13.21875 -14.65625 L 13.296875 -14.984375 C 13.296875 -15.210938 13.320312 -15.421875 13.375 -15.609375 C 13.4375 -15.804688 13.46875 -15.988281 13.46875 -16.15625 Z M 13.46875 -16.15625 "/></g></g><g style="fill:#737373;fill-opacity:1;"><g transform="translate(316.77835, 299.426736)"><path style="stroke:none" d=""/></g></g><g style="fill:#737373;fill-opacity:1;"><g transform="translate(342.031406, 299.426736)"><path style="stroke:none" d="M 72.734375 22.140625 L 72.828125 22.3125 C 72.597656 22.3125 72.285156 22.195312 71.890625 21.96875 C 71.554688 21.75 71.191406 21.484375 70.796875 21.171875 C 70.410156 20.859375 70.019531 20.566406 69.625 20.296875 C 69.457031 20.117188 69.300781 19.957031 69.15625 19.8125 C 69.019531 19.675781 68.867188 19.554688 68.703125 19.453125 C 68.191406 19.054688 67.695312 18.660156 67.21875 18.265625 C 66.75 17.867188 66.285156 17.476562 65.828125 17.09375 C 64.816406 16.25 63.804688 15.421875 62.796875 14.609375 C 61.785156 13.796875 60.75 12.992188 59.6875 12.203125 C 58.90625 11.585938 58.101562 10.984375 57.28125 10.390625 C 56.46875 9.804688 55.671875 9.207031 54.890625 8.59375 C 54.660156 8.414062 54.40625 8.226562 54.125 8.03125 C 53.851562 7.84375 53.578125 7.664062 53.296875 7.5 C 52.734375 7.15625 52.179688 6.785156 51.640625 6.390625 C 51.109375 6.003906 50.648438 5.613281 50.265625 5.21875 C 44.253906 0.78125 38.863281 -2.78125 34.09375 -5.46875 C 32.800781 -6.144531 31.820312 -6.484375 31.15625 -6.484375 C 30.25 -6.484375 29.460938 -5.863281 28.796875 -4.625 C 28.398438 -3.957031 27.78125 -2.707031 26.9375 -0.875 C 26.09375 0.945312 25.125 3.078125 24.03125 5.515625 C 22.9375 7.953125 21.800781 10.503906 20.625 13.171875 C 19.445312 15.835938 18.320312 18.40625 17.25 20.875 C 16.1875 23.34375 15.257812 25.488281 14.46875 27.3125 C 13.6875 29.144531 13.128906 30.425781 12.796875 31.15625 C 12.234375 32.550781 11.644531 33.960938 11.03125 35.390625 C 10.414062 36.828125 9.769531 38.25 9.09375 39.65625 C 9.039062 39.820312 8.96875 39.988281 8.875 40.15625 C 8.789062 40.320312 8.722656 40.488281 8.671875 40.65625 C 8.503906 41.050781 8.347656 41.414062 8.203125 41.75 C 8.066406 42.09375 7.882812 42.429688 7.65625 42.765625 C 7.488281 43.046875 7.289062 43.296875 7.0625 43.515625 C 6.84375 43.742188 6.59375 43.859375 6.3125 43.859375 C 6.03125 43.859375 5.722656 43.75 5.390625 43.53125 C 4.148438 42.851562 3.785156 41.867188 4.296875 40.578125 C 5.078125 38.609375 5.859375 36.640625 6.640625 34.671875 C 7.429688 32.710938 8.222656 30.753906 9.015625 28.796875 L 10.1875 25.9375 C 10.414062 25.375 10.878906 24.265625 11.578125 22.609375 C 12.273438 20.953125 13.113281 18.972656 14.09375 16.671875 C 15.082031 14.367188 16.125 11.96875 17.21875 9.46875 C 18.3125 6.96875 19.347656 4.566406 20.328125 2.265625 C 21.304688 -0.0234375 22.160156 -2 22.890625 -3.65625 C 23.628906 -5.3125 24.109375 -6.421875 24.328125 -6.984375 C 24.554688 -7.429688 24.695312 -7.851562 24.75 -8.25 C 24.800781 -8.644531 24.71875 -9.007812 24.5 -9.34375 C 24.164062 -9.90625 23.378906 -10.382812 22.140625 -10.78125 L 20.703125 -11.203125 C 19.140625 -11.648438 17.539062 -12.066406 15.90625 -12.453125 C 14.28125 -12.847656 12.65625 -13.128906 11.03125 -13.296875 C 10.414062 -13.359375 9.796875 -13.484375 9.171875 -13.671875 C 8.554688 -13.867188 8.109375 -14.28125 7.828125 -14.90625 C 7.265625 -16.082031 7.796875 -16.953125 9.421875 -17.515625 C 12.796875 -18.523438 15.953125 -19.476562 18.890625 -20.375 C 21.835938 -21.269531 24.800781 -22.113281 27.78125 -22.90625 C 30.132812 -23.457031 31.734375 -24.800781 32.578125 -26.9375 C 37.179688 -37.9375 41.84375 -47.84375 46.5625 -56.65625 C 46.613281 -56.769531 46.753906 -56.9375 46.984375 -57.15625 C 47.148438 -57.332031 47.316406 -57.546875 47.484375 -57.796875 C 47.648438 -58.046875 47.707031 -58.335938 47.65625 -58.671875 C 47.476562 -59.234375 46.859375 -59.851562 45.796875 -60.53125 C 45.679688 -60.8125 45.847656 -61.191406 46.296875 -61.671875 C 46.753906 -62.148438 47.175781 -62.582031 47.5625 -62.96875 C 47.726562 -63.132812 47.894531 -63.300781 48.0625 -63.46875 C 48.238281 -63.644531 48.410156 -63.816406 48.578125 -63.984375 L 48.90625 -64.40625 C 49.1875 -64.738281 49.507812 -65.070312 49.875 -65.40625 C 50.238281 -65.75 50.648438 -65.921875 51.109375 -65.921875 C 51.554688 -65.921875 52.03125 -65.695312 52.53125 -65.25 C 53.207031 -64.6875 53.503906 -64.109375 53.421875 -63.515625 C 53.335938 -62.929688 53.125 -62.273438 52.78125 -61.546875 L 52.53125 -61.03125 C 51.070312 -57.78125 49.613281 -54.523438 48.15625 -51.265625 C 46.695312 -48.015625 45.238281 -44.757812 43.78125 -41.5 L 38.3125 -29.296875 C 38.195312 -28.960938 38.066406 -28.640625 37.921875 -28.328125 C 37.785156 -28.015625 37.660156 -27.691406 37.546875 -27.359375 L 37.046875 -25.9375 L 37.546875 -25.84375 C 37.878906 -25.789062 38.1875 -25.765625 38.46875 -25.765625 C 39.257812 -25.765625 39.863281 -25.972656 40.28125 -26.390625 C 40.707031 -26.816406 41.085938 -27.253906 41.421875 -27.703125 C 41.640625 -28.035156 41.804688 -28.285156 41.921875 -28.453125 C 45.515625 -32.773438 49.398438 -37.023438 53.578125 -41.203125 C 57.765625 -45.390625 62.632812 -48.941406 68.1875 -51.859375 C 69.707031 -52.640625 71.304688 -53.335938 72.984375 -53.953125 C 74.671875 -54.578125 76.523438 -54.890625 78.546875 -54.890625 L 79.140625 -54.890625 C 81.828125 -54.835938 83.875 -53.992188 85.28125 -52.359375 C 86.625 -50.734375 86.960938 -48.710938 86.296875 -46.296875 C 85.617188 -43.722656 84.410156 -41.609375 82.671875 -39.953125 C 80.929688 -38.296875 79.164062 -36.847656 77.375 -35.609375 C 69.675781 -30.335938 60.242188 -26.691406 49.078125 -24.671875 C 41.898438 -23.316406 36.738281 -19.359375 33.59375 -12.796875 C 33.363281 -12.398438 33.132812 -11.988281 32.90625 -11.5625 C 32.6875 -11.144531 32.46875 -10.742188 32.25 -10.359375 L 31.578125 -9.171875 L 32.15625 -8.75 C 32.269531 -8.695312 32.660156 -8.457031 33.328125 -8.03125 C 34.003906 -7.613281 34.773438 -7.140625 35.640625 -6.609375 C 36.515625 -6.078125 37.34375 -5.554688 38.125 -5.046875 C 38.914062 -4.546875 39.484375 -4.210938 39.828125 -4.046875 C 42.398438 -2.359375 44.976562 -0.5625 47.5625 1.34375 C 50.59375 3.53125 53.566406 5.84375 56.484375 8.28125 C 59.410156 10.726562 62.273438 13.160156 65.078125 15.578125 C 66.253906 16.585938 67.429688 17.597656 68.609375 18.609375 C 69.785156 19.617188 70.96875 20.628906 72.15625 21.640625 C 72.488281 21.859375 72.679688 22.023438 72.734375 22.140625 Z M 28.546875 -19.28125 L 28.03125 -19.1875 C 23.320312 -18.40625 18.804688 -17.226562 14.484375 -15.65625 L 13.640625 -15.328125 L 14.65625 -15.0625 C 17.175781 -14.28125 19.234375 -13.675781 20.828125 -13.25 C 22.429688 -12.832031 23.679688 -12.625 24.578125 -12.625 C 25.984375 -12.625 26.878906 -13.113281 27.265625 -14.09375 C 27.660156 -15.082031 28.054688 -16.613281 28.453125 -18.6875 Z M 83.4375 -51.9375 C 82.3125 -53.175781 80.878906 -53.796875 79.140625 -53.796875 C 78.347656 -53.796875 77.421875 -53.679688 76.359375 -53.453125 C 71.921875 -52.273438 67.976562 -50.507812 64.53125 -48.15625 C 61.082031 -45.800781 57.953125 -43.132812 55.140625 -40.15625 C 52.335938 -37.1875 49.617188 -34.15625 46.984375 -31.0625 L 44.03125 -27.609375 L 45.046875 -27.78125 C 54.640625 -29.519531 63 -32.046875 70.125 -35.359375 C 72.59375 -36.484375 74.976562 -37.800781 77.28125 -39.3125 C 79.582031 -40.832031 81.519531 -42.796875 83.09375 -45.203125 C 83.707031 -46.046875 84.210938 -47.039062 84.609375 -48.1875 C 85.003906 -49.34375 84.613281 -50.59375 83.4375 -51.9375 Z M 83.4375 -51.9375 "/></g></g><g style="fill:#737373;fill-opacity:1;"><g transform="translate(401.207713, 299.426736)"><path style="stroke:none" d="M 28.796875 -12.453125 C 29.179688 -12.679688 29.628906 -12.796875 30.140625 -12.796875 C 30.191406 -12.515625 30.078125 -12.25 29.796875 -12 C 29.515625 -11.75 29.265625 -11.507812 29.046875 -11.28125 L 28.546875 -10.859375 C 26.523438 -9.347656 24.472656 -7.875 22.390625 -6.4375 C 20.316406 -5.007812 18.085938 -3.832031 15.703125 -2.90625 C 13.316406 -1.976562 10.664062 -1.515625 7.75 -1.515625 L 7.40625 -1.515625 C 4.539062 -1.515625 2.320312 -2.382812 0.75 -4.125 C -0.644531 -5.75 -1.117188 -7.710938 -0.671875 -10.015625 C 0.898438 -17.703125 5.894531 -22.671875 14.3125 -24.921875 C 14.757812 -25.035156 15.207031 -25.09375 15.65625 -25.09375 C 17 -25.09375 18.09375 -24.5 18.9375 -23.3125 C 19.613281 -22.414062 19.820312 -21.644531 19.5625 -21 C 19.3125 -20.351562 18.9375 -19.695312 18.4375 -19.03125 C 16.1875 -16.28125 12.484375 -14.507812 7.328125 -13.71875 C 5.472656 -13.4375 4.265625 -12.707031 3.703125 -11.53125 C 3.140625 -10.351562 2.71875 -9.09375 2.4375 -7.75 L 2.359375 -7.15625 C 2.191406 -6.375 2.332031 -5.644531 2.78125 -4.96875 C 3.394531 -4.125 4.375 -3.503906 5.71875 -3.109375 C 6.726562 -2.828125 7.796875 -2.6875 8.921875 -2.6875 C 9.816406 -2.6875 10.6875 -2.769531 11.53125 -2.9375 C 12.375 -3.113281 13.273438 -3.34375 14.234375 -3.625 C 17.203125 -4.46875 20.175781 -5.894531 23.15625 -7.90625 C 24.445312 -8.75 25.738281 -9.757812 27.03125 -10.9375 C 27.132812 -11 27.242188 -11.082031 27.359375 -11.1875 C 27.472656 -11.300781 27.585938 -11.414062 27.703125 -11.53125 C 27.867188 -11.695312 28.035156 -11.847656 28.203125 -11.984375 C 28.367188 -12.128906 28.566406 -12.285156 28.796875 -12.453125 Z M 8.328125 -16.75 L 7.75 -16.078125 L 8.671875 -16.328125 C 10.640625 -16.773438 12.3125 -17.363281 13.6875 -18.09375 C 15.0625 -18.820312 16.253906 -20.003906 17.265625 -21.640625 L 17.59375 -22.3125 L 16.84375 -22.0625 C 15.207031 -21.550781 13.6875 -20.914062 12.28125 -20.15625 C 10.882812 -19.40625 9.566406 -18.269531 8.328125 -16.75 Z M 8.328125 -16.75 "/></g></g><g style="fill:#737373;fill-opacity:1;"><g transform="translate(429.912004, 299.426736)"><path style="stroke:none" d="M 35.953125 -72.984375 C 36.617188 -72.367188 36.878906 -71.796875 36.734375 -71.265625 C 36.597656 -70.734375 36.28125 -70.128906 35.78125 -69.453125 C 35.101562 -68.671875 34.46875 -67.828125 33.875 -66.921875 C 33.289062 -66.023438 32.691406 -65.15625 32.078125 -64.3125 C 32.015625 -64.257812 31.96875 -64.203125 31.9375 -64.140625 C 31.914062 -64.085938 31.878906 -64.035156 31.828125 -63.984375 C 28.796875 -59.609375 25.90625 -55.203125 23.15625 -50.765625 C 16.976562 -40.722656 11.421875 -30.195312 6.484375 -19.1875 C 1.546875 -8.1875 -2.410156 3.175781 -5.390625 14.90625 C -7.410156 22.988281 -8.335938 30.367188 -8.171875 37.046875 C -8.171875 37.328125 -8.195312 37.609375 -8.25 37.890625 C -8.25 38.503906 -8.21875 39.09375 -8.15625 39.65625 C -8.101562 40.21875 -7.851562 40.722656 -7.40625 41.171875 C -6.84375 41.835938 -5.890625 42.257812 -4.546875 42.4375 C -4.316406 42.4375 -4.117188 42.546875 -3.953125 42.765625 C -3.671875 42.992188 -3.503906 43.332031 -3.453125 43.78125 C -3.398438 44.28125 -3.5 44.613281 -3.75 44.78125 C -4 44.957031 -4.289062 45.046875 -4.625 45.046875 L -4.71875 45.046875 C -7.800781 45.046875 -9.789062 43.582031 -10.6875 40.65625 C -11.132812 39.09375 -11.34375 37.578125 -11.3125 36.109375 C -11.289062 34.648438 -11.195312 33.222656 -11.03125 31.828125 L -10.9375 30.984375 C -10.207031 22.566406 -8.675781 14.414062 -6.34375 6.53125 C -4.019531 -1.351562 -1.234375 -9.015625 2.015625 -16.453125 C 5.273438 -23.890625 8.644531 -31.117188 12.125 -38.140625 C 15.09375 -44.085938 18.132812 -49.960938 21.25 -55.765625 C 24.375 -61.578125 28.179688 -66.925781 32.671875 -71.8125 C 32.722656 -71.925781 32.859375 -72.125 33.078125 -72.40625 C 33.304688 -72.6875 33.546875 -72.953125 33.796875 -73.203125 C 34.054688 -73.453125 34.351562 -73.578125 34.6875 -73.578125 C 35.019531 -73.578125 35.441406 -73.378906 35.953125 -72.984375 Z M 35.953125 -72.984375 "/></g></g><g style="fill:#737373;fill-opacity:1;"><g transform="translate(445.905596, 299.426736)"><path style="stroke:none" d="M 29.296875 -13.390625 C 29.460938 -13.273438 29.546875 -13.019531 29.546875 -12.625 C 29.546875 -12.226562 29.304688 -11.863281 28.828125 -11.53125 C 28.359375 -11.195312 27.984375 -10.914062 27.703125 -10.6875 C 26.742188 -9.84375 25.757812 -9.03125 24.75 -8.25 C 23.738281 -7.46875 22.726562 -6.710938 21.71875 -5.984375 C 19.582031 -4.460938 17.320312 -3.113281 14.9375 -1.9375 C 12.550781 -0.757812 10.015625 0.191406 7.328125 0.921875 C 6.203125 1.203125 5.019531 1.34375 3.78125 1.34375 C 2.550781 1.34375 1.316406 0.78125 0.078125 -0.34375 C -1.148438 -1.40625 -1.832031 -2.539062 -1.96875 -3.75 C -2.113281 -4.957031 -2.019531 -6.117188 -1.6875 -7.234375 C -0.675781 -11.054688 0.753906 -14.625 2.609375 -17.9375 C 4.460938 -21.25 6.679688 -24.304688 9.265625 -27.109375 C 9.546875 -27.503906 9.894531 -27.867188 10.3125 -28.203125 C 10.726562 -28.535156 11.300781 -28.421875 12.03125 -27.859375 C 12.820312 -27.242188 13.078125 -26.695312 12.796875 -26.21875 C 12.515625 -25.75 12.257812 -25.316406 12.03125 -24.921875 C 10.238281 -22.054688 8.5 -19.191406 6.8125 -16.328125 C 5.132812 -13.460938 3.648438 -10.460938 2.359375 -7.328125 C 2.128906 -6.765625 1.847656 -6.171875 1.515625 -5.546875 C 1.179688 -4.929688 1.015625 -4.300781 1.015625 -3.65625 C 1.015625 -3.007812 1.320312 -2.378906 1.9375 -1.765625 C 2.945312 -0.703125 4.066406 -0.253906 5.296875 -0.421875 C 6.535156 -0.585938 7.660156 -0.785156 8.671875 -1.015625 C 10.859375 -1.515625 12.878906 -2.269531 14.734375 -3.28125 C 16.585938 -4.289062 18.351562 -5.414062 20.03125 -6.65625 C 20.257812 -6.820312 20.820312 -7.296875 21.71875 -8.078125 C 22.613281 -8.867188 23.59375 -9.710938 24.65625 -10.609375 C 25.726562 -11.503906 26.710938 -12.234375 27.609375 -12.796875 C 28.503906 -13.359375 29.066406 -13.554688 29.296875 -13.390625 Z M 15.75 -31.828125 C 14.457031 -31.710938 13.640625 -32.300781 13.296875 -33.59375 C 13.015625 -34.71875 13.125 -35.515625 13.625 -35.984375 C 14.132812 -36.460938 14.867188 -36.734375 15.828125 -36.796875 C 16.503906 -36.847656 17.09375 -36.703125 17.59375 -36.359375 C 18.101562 -36.023438 18.46875 -35.4375 18.6875 -34.59375 C 18.75 -33.644531 18.5 -32.972656 17.9375 -32.578125 C 17.375 -32.179688 16.644531 -31.929688 15.75 -31.828125 Z M 15.75 -31.828125 "/></g></g><g style="fill:#737373;fill-opacity:1;"><g transform="translate(473.683934, 299.426736)"><path style="stroke:none" d="M 28.796875 -12.453125 C 29.179688 -12.679688 29.628906 -12.796875 30.140625 -12.796875 C 30.191406 -12.515625 30.078125 -12.25 29.796875 -12 C 29.515625 -11.75 29.265625 -11.507812 29.046875 -11.28125 L 28.546875 -10.859375 C 26.523438 -9.347656 24.472656 -7.875 22.390625 -6.4375 C 20.316406 -5.007812 18.085938 -3.832031 15.703125 -2.90625 C 13.316406 -1.976562 10.664062 -1.515625 7.75 -1.515625 L 7.40625 -1.515625 C 4.539062 -1.515625 2.320312 -2.382812 0.75 -4.125 C -0.644531 -5.75 -1.117188 -7.710938 -0.671875 -10.015625 C 0.898438 -17.703125 5.894531 -22.671875 14.3125 -24.921875 C 14.757812 -25.035156 15.207031 -25.09375 15.65625 -25.09375 C 17 -25.09375 18.09375 -24.5 18.9375 -23.3125 C 19.613281 -22.414062 19.820312 -21.644531 19.5625 -21 C 19.3125 -20.351562 18.9375 -19.695312 18.4375 -19.03125 C 16.1875 -16.28125 12.484375 -14.507812 7.328125 -13.71875 C 5.472656 -13.4375 4.265625 -12.707031 3.703125 -11.53125 C 3.140625 -10.351562 2.71875 -9.09375 2.4375 -7.75 L 2.359375 -7.15625 C 2.191406 -6.375 2.332031 -5.644531 2.78125 -4.96875 C 3.394531 -4.125 4.375 -3.503906 5.71875 -3.109375 C 6.726562 -2.828125 7.796875 -2.6875 8.921875 -2.6875 C 9.816406 -2.6875 10.6875 -2.769531 11.53125 -2.9375 C 12.375 -3.113281 13.273438 -3.34375 14.234375 -3.625 C 17.203125 -4.46875 20.175781 -5.894531 23.15625 -7.90625 C 24.445312 -8.75 25.738281 -9.757812 27.03125 -10.9375 C 27.132812 -11 27.242188 -11.082031 27.359375 -11.1875 C 27.472656 -11.300781 27.585938 -11.414062 27.703125 -11.53125 C 27.867188 -11.695312 28.035156 -11.847656 28.203125 -11.984375 C 28.367188 -12.128906 28.566406 -12.285156 28.796875 -12.453125 Z M 8.328125 -16.75 L 7.75 -16.078125 L 8.671875 -16.328125 C 10.640625 -16.773438 12.3125 -17.363281 13.6875 -18.09375 C 15.0625 -18.820312 16.253906 -20.003906 17.265625 -21.640625 L 17.59375 -22.3125 L 16.84375 -22.0625 C 15.207031 -21.550781 13.6875 -20.914062 12.28125 -20.15625 C 10.882812 -19.40625 9.566406 -18.269531 8.328125 -16.75 Z M 8.328125 -16.75 "/></g></g><g style="fill:#737373;fill-opacity:1;"><g transform="translate(502.388253, 299.426736)"><path style="stroke:none" d="M 26.765625 -14.0625 C 27.273438 -14.0625 27.640625 -13.835938 27.859375 -13.390625 C 27.972656 -13.222656 28.003906 -13.082031 27.953125 -12.96875 C 27.890625 -12.851562 27.742188 -12.753906 27.515625 -12.671875 C 27.296875 -12.585938 27.078125 -12.515625 26.859375 -12.453125 C 26.578125 -12.398438 26.378906 -12.375 26.265625 -12.375 C 21.773438 -11.082031 17.269531 -9.394531 12.75 -7.3125 C 8.238281 -5.238281 3.484375 -2.660156 -1.515625 0.421875 C -3.085938 1.378906 -4.195312 2.613281 -4.84375 4.125 C -5.488281 5.632812 -6.035156 7.175781 -6.484375 8.75 C -6.703125 9.476562 -6.925781 10.207031 -7.15625 10.9375 C -7.382812 11.664062 -7.664062 12.367188 -8 13.046875 C -8.050781 13.160156 -8.035156 13.34375 -7.953125 13.59375 C -7.867188 13.84375 -7.769531 14.082031 -7.65625 14.3125 L -7.578125 14.5625 C -6.054688 17.925781 -5.320312 21.363281 -5.375 24.875 C -5.4375 28.382812 -6.179688 31.582031 -7.609375 34.46875 C -9.046875 37.363281 -11.082031 39.566406 -13.71875 41.078125 C -14 41.253906 -14.320312 41.425781 -14.6875 41.59375 C -15.050781 41.757812 -15.429688 41.84375 -15.828125 41.84375 C -16.390625 41.84375 -16.976562 41.585938 -17.59375 41.078125 C -18.382812 40.460938 -18.75 39.832031 -18.6875 39.1875 C -18.632812 38.539062 -18.523438 37.9375 -18.359375 37.375 C -17.515625 34.851562 -16.6875 32.359375 -15.875 29.890625 C -15.0625 27.421875 -14.234375 24.976562 -13.390625 22.5625 L -11.359375 16.5 C -10.804688 14.875 -10.863281 13.613281 -11.53125 12.71875 C -12.207031 11.8125 -13.523438 11.21875 -15.484375 10.9375 C -15.660156 10.9375 -15.914062 10.9375 -16.25 10.9375 C -16.695312 10.882812 -17.070312 10.816406 -17.375 10.734375 C -17.6875 10.648438 -17.925781 10.382812 -18.09375 9.9375 C -18.207031 9.59375 -18.191406 9.335938 -18.046875 9.171875 C -17.910156 9.003906 -17.675781 8.8125 -17.34375 8.59375 C -17.113281 8.414062 -16.972656 8.300781 -16.921875 8.25 C -16.691406 8.019531 -16.523438 7.90625 -16.421875 7.90625 C -13.328125 6.625 -10.753906 4.898438 -8.703125 2.734375 C -6.660156 0.578125 -4.953125 -1.800781 -3.578125 -4.40625 C -2.203125 -7.019531 -0.984375 -9.675781 0.078125 -12.375 C 5.472656 -25.90625 11.789062 -37.890625 19.03125 -48.328125 C 19.53125 -49.109375 20.128906 -49.878906 20.828125 -50.640625 C 21.535156 -51.398438 22.363281 -52.03125 23.3125 -52.53125 C 23.9375 -52.863281 24.53125 -53.03125 25.09375 -53.03125 C 26.382812 -53.03125 27.394531 -52.160156 28.125 -50.421875 C 28.625 -49.191406 28.84375 -47.566406 28.78125 -45.546875 C 28.726562 -43.523438 28.4375 -41.472656 27.90625 -39.390625 C 27.375 -37.316406 26.671875 -35.453125 25.796875 -33.796875 C 24.929688 -32.140625 24.019531 -31.03125 23.0625 -30.46875 C 22.675781 -30.25 22.367188 -30.140625 22.140625 -30.140625 C 21.972656 -30.140625 21.832031 -30.195312 21.71875 -30.3125 C 21.21875 -30.644531 20.96875 -31.003906 20.96875 -31.390625 C 20.96875 -31.785156 20.992188 -32.070312 21.046875 -32.25 C 21.492188 -33.425781 21.941406 -34.601562 22.390625 -35.78125 C 22.835938 -36.957031 23.316406 -38.109375 23.828125 -39.234375 L 24 -39.734375 C 24.550781 -40.972656 25.066406 -42.25 25.546875 -43.5625 C 26.023438 -44.882812 26.320312 -46.300781 26.4375 -47.8125 C 26.4375 -47.925781 26.460938 -48.125 26.515625 -48.40625 C 26.578125 -48.800781 26.59375 -49.234375 26.5625 -49.703125 C 26.53125 -50.179688 26.265625 -50.617188 25.765625 -51.015625 C 25.367188 -51.242188 25.03125 -51.359375 24.75 -51.359375 C 24.414062 -51.359375 24.148438 -51.269531 23.953125 -51.09375 C 23.753906 -50.925781 23.539062 -50.734375 23.3125 -50.515625 C 23.144531 -50.285156 23.035156 -50.144531 22.984375 -50.09375 C 21.296875 -48.570312 19.847656 -46.867188 18.640625 -44.984375 C 17.441406 -43.109375 16.28125 -41.191406 15.15625 -39.234375 L 14.90625 -38.8125 C 8.78125 -28.03125 3.023438 -15.796875 -2.359375 -2.109375 L -2.609375 -1.4375 L -1.9375 -1.765625 C -0.976562 -2.210938 -0.0390625 -2.675781 0.875 -3.15625 C 1.800781 -3.632812 2.71875 -4.097656 3.625 -4.546875 C 5.582031 -5.503906 7.515625 -6.457031 9.421875 -7.40625 C 11.335938 -8.363281 13.25 -9.289062 15.15625 -10.1875 C 16.445312 -10.75 17.765625 -11.253906 19.109375 -11.703125 C 20.453125 -12.148438 21.800781 -12.597656 23.15625 -13.046875 L 25.421875 -13.8125 C 25.585938 -13.863281 25.796875 -13.914062 26.046875 -13.96875 C 26.304688 -14.03125 26.546875 -14.0625 26.765625 -14.0625 Z M -14.3125 34.4375 C -12.007812 32.25 -10.394531 29.648438 -9.46875 26.640625 C -8.539062 23.640625 -8.390625 20.539062 -9.015625 17.34375 L -9.515625 17.265625 L -9.9375 18.265625 C -10.882812 20.847656 -11.78125 23.398438 -12.625 25.921875 C -13.46875 28.453125 -14.195312 31.175781 -14.8125 34.09375 Z M -7.578125 4.890625 L -7.40625 4.125 L -14.234375 9.015625 L -13.890625 9.171875 C -12.992188 9.734375 -12.265625 10.164062 -11.703125 10.46875 C -11.140625 10.78125 -10.660156 10.9375 -10.265625 10.9375 C -9.597656 10.9375 -9.109375 10.472656 -8.796875 9.546875 C -8.484375 8.628906 -8.078125 7.078125 -7.578125 4.890625 Z M -7.578125 4.890625 "/></g></g><g style="fill:#737373;fill-opacity:1;"><g transform="translate(528.328009, 299.426736)"><path style="stroke:none" d=""/></g></g><g style="fill:#737373;fill-opacity:1;"><g transform="translate(132.100133, 365.090909)"><path style="stroke:none" d="M 9.03125 -17.6875 L 2.21875 -17.6875 L 2.484375 -18.9375 L 17.5 -18.9375 L 17.25 -17.6875 L 10.4375 -17.6875 L 6.890625 0 L 5.515625 0 Z M 9.03125 -17.6875 "/></g></g><g style="fill:#737373;fill-opacity:1;"><g transform="translate(145.836801, 365.090909)"><path style="stroke:none" d="M 2.59375 -6.765625 C 2.5625 -6.367188 2.546875 -6.070312 2.546875 -5.875 C 2.546875 -4.332031 2.984375 -3.148438 3.859375 -2.328125 C 4.742188 -1.515625 6.046875 -1.109375 7.765625 -1.109375 C 8.753906 -1.109375 9.664062 -1.273438 10.5 -1.609375 C 11.34375 -1.941406 12.046875 -2.40625 12.609375 -3 L 13.21875 -2.0625 C 12.59375 -1.375 11.785156 -0.835938 10.796875 -0.453125 C 9.816406 -0.078125 8.769531 0.109375 7.65625 0.109375 C 5.65625 0.109375 4.082031 -0.410156 2.9375 -1.453125 C 1.789062 -2.503906 1.21875 -3.957031 1.21875 -5.8125 C 1.21875 -7.394531 1.550781 -8.828125 2.21875 -10.109375 C 2.882812 -11.390625 3.800781 -12.394531 4.96875 -13.125 C 6.144531 -13.863281 7.460938 -14.234375 8.921875 -14.234375 C 10.765625 -14.234375 12.226562 -13.707031 13.3125 -12.65625 C 14.394531 -11.613281 14.9375 -10.171875 14.9375 -8.328125 C 14.9375 -7.898438 14.878906 -7.378906 14.765625 -6.765625 Z M 8.890625 -13.0625 C 7.359375 -13.0625 6.035156 -12.582031 4.921875 -11.625 C 3.816406 -10.675781 3.097656 -9.40625 2.765625 -7.8125 L 13.625 -7.8125 C 13.644531 -7.976562 13.65625 -8.210938 13.65625 -8.515625 C 13.65625 -9.941406 13.222656 -11.054688 12.359375 -11.859375 C 11.492188 -12.660156 10.335938 -13.0625 8.890625 -13.0625 Z M 8.890625 -13.0625 "/></g></g><g style="fill:#737373;fill-opacity:1;"><g transform="translate(162.007126, 365.090909)"><path style="stroke:none" d="M 4.984375 -11.140625 C 5.609375 -12.171875 6.410156 -12.941406 7.390625 -13.453125 C 8.378906 -13.972656 9.578125 -14.234375 10.984375 -14.234375 L 10.734375 -12.90625 L 10.3125 -12.921875 C 8.695312 -12.921875 7.375 -12.441406 6.34375 -11.484375 C 5.320312 -10.535156 4.625 -9.125 4.25 -7.25 L 2.78125 0 L 1.4375 0 L 4.25 -14.125 L 5.578125 -14.125 Z M 4.984375 -11.140625 "/></g></g><g style="fill:#737373;fill-opacity:1;"><g transform="translate(172.282587, 365.090909)"><path style="stroke:none" d="M 16.828125 -14.125 L 14.015625 0 L 12.71875 0 L 13.25 -2.765625 C 12.5625 -1.859375 11.707031 -1.148438 10.6875 -0.640625 C 9.675781 -0.140625 8.546875 0.109375 7.296875 0.109375 C 5.460938 0.109375 3.988281 -0.414062 2.875 -1.46875 C 1.769531 -2.53125 1.21875 -3.960938 1.21875 -5.765625 C 1.21875 -7.367188 1.554688 -8.8125 2.234375 -10.09375 C 2.921875 -11.382812 3.875 -12.394531 5.09375 -13.125 C 6.3125 -13.863281 7.679688 -14.234375 9.203125 -14.234375 C 10.660156 -14.234375 11.863281 -13.914062 12.8125 -13.28125 C 13.769531 -12.644531 14.421875 -11.753906 14.765625 -10.609375 L 15.46875 -14.125 Z M 7.578125 -1.109375 C 8.835938 -1.109375 9.96875 -1.414062 10.96875 -2.03125 C 11.96875 -2.644531 12.753906 -3.492188 13.328125 -4.578125 C 13.910156 -5.671875 14.203125 -6.90625 14.203125 -8.28125 C 14.203125 -9.769531 13.765625 -10.929688 12.890625 -11.765625 C 12.015625 -12.597656 10.785156 -13.015625 9.203125 -13.015625 C 7.929688 -13.015625 6.796875 -12.703125 5.796875 -12.078125 C 4.796875 -11.453125 4.003906 -10.59375 3.421875 -9.5 C 2.847656 -8.414062 2.5625 -7.195312 2.5625 -5.84375 C 2.5625 -4.34375 3 -3.175781 3.875 -2.34375 C 4.75 -1.519531 5.984375 -1.109375 7.578125 -1.109375 Z M 7.578125 -1.109375 "/></g></g><g style="fill:#737373;fill-opacity:1;"><g transform="translate(190.535048, 365.090909)"><path style="stroke:none" d="M 10.953125 -14.234375 C 12.796875 -14.234375 14.273438 -13.703125 15.390625 -12.640625 C 16.503906 -11.585938 17.0625 -10.160156 17.0625 -8.359375 C 17.0625 -6.753906 16.710938 -5.304688 16.015625 -4.015625 C 15.328125 -2.722656 14.375 -1.710938 13.15625 -0.984375 C 11.9375 -0.253906 10.570312 0.109375 9.0625 0.109375 C 7.601562 0.109375 6.398438 -0.203125 5.453125 -0.828125 C 4.503906 -1.453125 3.847656 -2.347656 3.484375 -3.515625 L 1.734375 5.25 L 0.375 5.25 L 4.25 -14.125 L 5.578125 -14.125 L 5.03125 -11.390625 C 5.71875 -12.285156 6.566406 -12.984375 7.578125 -13.484375 C 8.585938 -13.984375 9.710938 -14.234375 10.953125 -14.234375 Z M 9.09375 -1.109375 C 10.351562 -1.109375 11.484375 -1.414062 12.484375 -2.03125 C 13.484375 -2.65625 14.265625 -3.507812 14.828125 -4.59375 C 15.398438 -5.675781 15.6875 -6.90625 15.6875 -8.28125 C 15.6875 -9.769531 15.25 -10.929688 14.375 -11.765625 C 13.5 -12.597656 12.269531 -13.015625 10.6875 -13.015625 C 9.425781 -13.015625 8.289062 -12.707031 7.28125 -12.09375 C 6.28125 -11.476562 5.492188 -10.625 4.921875 -9.53125 C 4.347656 -8.4375 4.0625 -7.207031 4.0625 -5.84375 C 4.0625 -4.34375 4.5 -3.175781 5.375 -2.34375 C 6.257812 -1.519531 7.5 -1.109375 9.09375 -1.109375 Z M 9.09375 -1.109375 "/></g></g><g style="fill:#737373;fill-opacity:1;"><g transform="translate(208.787509, 365.090909)"><path style="stroke:none" d="M 4.25 -14.125 L 5.59375 -14.125 L 2.78125 0 L 1.4375 0 Z M 5.765625 -17.546875 C 5.472656 -17.546875 5.226562 -17.644531 5.03125 -17.84375 C 4.832031 -18.050781 4.734375 -18.285156 4.734375 -18.546875 C 4.734375 -18.878906 4.84375 -19.160156 5.0625 -19.390625 C 5.289062 -19.628906 5.578125 -19.75 5.921875 -19.75 C 6.210938 -19.75 6.460938 -19.648438 6.671875 -19.453125 C 6.878906 -19.253906 6.984375 -19.019531 6.984375 -18.75 C 6.984375 -18.40625 6.863281 -18.117188 6.625 -17.890625 C 6.394531 -17.660156 6.109375 -17.546875 5.765625 -17.546875 Z M 5.765625 -17.546875 "/></g></g><g style="fill:#737373;fill-opacity:1;"><g transform="translate(215.845124, 365.090909)"><path style="stroke:none" d="M 16.828125 -14.125 L 14.015625 0 L 12.71875 0 L 13.25 -2.765625 C 12.5625 -1.859375 11.707031 -1.148438 10.6875 -0.640625 C 9.675781 -0.140625 8.546875 0.109375 7.296875 0.109375 C 5.460938 0.109375 3.988281 -0.414062 2.875 -1.46875 C 1.769531 -2.53125 1.21875 -3.960938 1.21875 -5.765625 C 1.21875 -7.367188 1.554688 -8.8125 2.234375 -10.09375 C 2.921875 -11.382812 3.875 -12.394531 5.09375 -13.125 C 6.3125 -13.863281 7.679688 -14.234375 9.203125 -14.234375 C 10.660156 -14.234375 11.863281 -13.914062 12.8125 -13.28125 C 13.769531 -12.644531 14.421875 -11.753906 14.765625 -10.609375 L 15.46875 -14.125 Z M 7.578125 -1.109375 C 8.835938 -1.109375 9.96875 -1.414062 10.96875 -2.03125 C 11.96875 -2.644531 12.753906 -3.492188 13.328125 -4.578125 C 13.910156 -5.671875 14.203125 -6.90625 14.203125 -8.28125 C 14.203125 -9.769531 13.765625 -10.929688 12.890625 -11.765625 C 12.015625 -12.597656 10.785156 -13.015625 9.203125 -13.015625 C 7.929688 -13.015625 6.796875 -12.703125 5.796875 -12.078125 C 4.796875 -11.453125 4.003906 -10.59375 3.421875 -9.5 C 2.847656 -8.414062 2.5625 -7.195312 2.5625 -5.84375 C 2.5625 -4.34375 3 -3.175781 3.875 -2.34375 C 4.75 -1.519531 5.984375 -1.109375 7.578125 -1.109375 Z M 7.578125 -1.109375 "/></g></g><g style="fill:#737373;fill-opacity:1;"><g transform="translate(234.097585, 365.090909)"><path style="stroke:none" d=""/></g></g><g style="fill:#737373;fill-opacity:1;"><g transform="translate(241.047035, 365.090909)"><path style="stroke:none" d="M 6.8125 -17.6875 L 5.1875 -9.609375 L 15.25 -9.609375 L 15.015625 -8.359375 L 4.953125 -8.359375 L 3.265625 0 L 1.890625 0 L 5.6875 -18.9375 L 18.34375 -18.9375 L 18.0625 -17.6875 Z M 6.8125 -17.6875 "/></g></g><g style="fill:#737373;fill-opacity:1;"><g transform="translate(257.595934, 365.090909)"><path style="stroke:none" d="M 16.828125 -14.125 L 14.015625 0 L 12.71875 0 L 13.25 -2.765625 C 12.5625 -1.859375 11.707031 -1.148438 10.6875 -0.640625 C 9.675781 -0.140625 8.546875 0.109375 7.296875 0.109375 C 5.460938 0.109375 3.988281 -0.414062 2.875 -1.46875 C 1.769531 -2.53125 1.21875 -3.960938 1.21875 -5.765625 C 1.21875 -7.367188 1.554688 -8.8125 2.234375 -10.09375 C 2.921875 -11.382812 3.875 -12.394531 5.09375 -13.125 C 6.3125 -13.863281 7.679688 -14.234375 9.203125 -14.234375 C 10.660156 -14.234375 11.863281 -13.914062 12.8125 -13.28125 C 13.769531 -12.644531 14.421875 -11.753906 14.765625 -10.609375 L 15.46875 -14.125 Z M 7.578125 -1.109375 C 8.835938 -1.109375 9.96875 -1.414062 10.96875 -2.03125 C 11.96875 -2.644531 12.753906 -3.492188 13.328125 -4.578125 C 13.910156 -5.671875 14.203125 -6.90625 14.203125 -8.28125 C 14.203125 -9.769531 13.765625 -10.929688 12.890625 -11.765625 C 12.015625 -12.597656 10.785156 -13.015625 9.203125 -13.015625 C 7.929688 -13.015625 6.796875 -12.703125 5.796875 -12.078125 C 4.796875 -11.453125 4.003906 -10.59375 3.421875 -9.5 C 2.847656 -8.414062 2.5625 -7.195312 2.5625 -5.84375 C 2.5625 -4.34375 3 -3.175781 3.875 -2.34375 C 4.75 -1.519531 5.984375 -1.109375 7.578125 -1.109375 Z M 7.578125 -1.109375 "/></g></g><g style="fill:#737373;fill-opacity:1;"><g transform="translate(275.848389, 365.090909)"><path style="stroke:none" d="M 7.578125 0.109375 C 5.628906 0.109375 4.082031 -0.421875 2.9375 -1.484375 C 1.789062 -2.546875 1.21875 -3.972656 1.21875 -5.765625 C 1.21875 -7.367188 1.5625 -8.8125 2.25 -10.09375 C 2.945312 -11.382812 3.910156 -12.394531 5.140625 -13.125 C 6.378906 -13.863281 7.773438 -14.234375 9.328125 -14.234375 C 10.585938 -14.234375 11.664062 -14.007812 12.5625 -13.5625 C 13.46875 -13.125 14.175781 -12.460938 14.6875 -11.578125 L 13.578125 -10.90625 C 12.734375 -12.3125 11.289062 -13.015625 9.25 -13.015625 C 7.96875 -13.015625 6.820312 -12.703125 5.8125 -12.078125 C 4.800781 -11.453125 4.003906 -10.597656 3.421875 -9.515625 C 2.847656 -8.429688 2.5625 -7.207031 2.5625 -5.84375 C 2.5625 -4.34375 3.003906 -3.175781 3.890625 -2.34375 C 4.773438 -1.519531 6.039062 -1.109375 7.6875 -1.109375 C 8.625 -1.109375 9.5 -1.285156 10.3125 -1.640625 C 11.132812 -2.003906 11.816406 -2.515625 12.359375 -3.171875 L 13.3125 -2.40625 C 12.695312 -1.613281 11.878906 -0.992188 10.859375 -0.546875 C 9.835938 -0.109375 8.742188 0.109375 7.578125 0.109375 Z M 7.578125 0.109375 "/></g></g><g style="fill:#737373;fill-opacity:1;"><g transform="translate(290.855968, 365.090909)"><path style="stroke:none" d="M 4.25 -14.125 L 5.59375 -14.125 L 2.78125 0 L 1.4375 0 Z M 5.765625 -17.546875 C 5.472656 -17.546875 5.226562 -17.644531 5.03125 -17.84375 C 4.832031 -18.050781 4.734375 -18.285156 4.734375 -18.546875 C 4.734375 -18.878906 4.84375 -19.160156 5.0625 -19.390625 C 5.289062 -19.628906 5.578125 -19.75 5.921875 -19.75 C 6.210938 -19.75 6.460938 -19.648438 6.671875 -19.453125 C 6.878906 -19.253906 6.984375 -19.019531 6.984375 -18.75 C 6.984375 -18.40625 6.863281 -18.117188 6.625 -17.890625 C 6.394531 -17.660156 6.109375 -17.546875 5.765625 -17.546875 Z M 5.765625 -17.546875 "/></g></g><g style="fill:#737373;fill-opacity:1;"><g transform="translate(297.913594, 365.090909)"><path style="stroke:none" d="M 16.828125 -14.125 L 14.015625 0 L 12.71875 0 L 13.25 -2.765625 C 12.5625 -1.859375 11.707031 -1.148438 10.6875 -0.640625 C 9.675781 -0.140625 8.546875 0.109375 7.296875 0.109375 C 5.460938 0.109375 3.988281 -0.414062 2.875 -1.46875 C 1.769531 -2.53125 1.21875 -3.960938 1.21875 -5.765625 C 1.21875 -7.367188 1.554688 -8.8125 2.234375 -10.09375 C 2.921875 -11.382812 3.875 -12.394531 5.09375 -13.125 C 6.3125 -13.863281 7.679688 -14.234375 9.203125 -14.234375 C 10.660156 -14.234375 11.863281 -13.914062 12.8125 -13.28125 C 13.769531 -12.644531 14.421875 -11.753906 14.765625 -10.609375 L 15.46875 -14.125 Z M 7.578125 -1.109375 C 8.835938 -1.109375 9.96875 -1.414062 10.96875 -2.03125 C 11.96875 -2.644531 12.753906 -3.492188 13.328125 -4.578125 C 13.910156 -5.671875 14.203125 -6.90625 14.203125 -8.28125 C 14.203125 -9.769531 13.765625 -10.929688 12.890625 -11.765625 C 12.015625 -12.597656 10.785156 -13.015625 9.203125 -13.015625 C 7.929688 -13.015625 6.796875 -12.703125 5.796875 -12.078125 C 4.796875 -11.453125 4.003906 -10.59375 3.421875 -9.5 C 2.847656 -8.414062 2.5625 -7.195312 2.5625 -5.84375 C 2.5625 -4.34375 3 -3.175781 3.875 -2.34375 C 4.75 -1.519531 5.984375 -1.109375 7.578125 -1.109375 Z M 7.578125 -1.109375 "/></g></g><g style="fill:#737373;fill-opacity:1;"><g transform="translate(316.16605, 365.090909)"><path style="stroke:none" d="M 5.4375 -20.0625 L 6.78125 -20.0625 L 2.78125 0 L 1.4375 0 Z M 5.4375 -20.0625 "/></g></g><g style="fill:#737373;fill-opacity:1;"><g transform="translate(323.223655, 365.090909)"><path style="stroke:none" d=""/></g></g><g style="fill:#737373;fill-opacity:1;"><g transform="translate(330.173115, 365.090909)"><path style="stroke:none" d="M 15.609375 -14.125 L 5.0625 2.078125 C 4.269531 3.304688 3.515625 4.160156 2.796875 4.640625 C 2.085938 5.117188 1.242188 5.359375 0.265625 5.359375 C -0.378906 5.359375 -0.988281 5.25 -1.5625 5.03125 C -2.144531 4.8125 -2.597656 4.503906 -2.921875 4.109375 L -2.140625 3.109375 C -1.503906 3.816406 -0.65625 4.171875 0.40625 4.171875 C 1.050781 4.171875 1.640625 3.988281 2.171875 3.625 C 2.703125 3.257812 3.269531 2.628906 3.875 1.734375 L 5.0625 -0.046875 L 1.484375 -14.125 L 2.859375 -14.125 L 6.03125 -1.484375 L 14.203125 -14.125 Z M 15.609375 -14.125 "/></g></g><g style="fill:#737373;fill-opacity:1;"><g transform="translate(344.450605, 365.090909)"><path style="stroke:none" d=""/></g></g><g style="fill:#737373;fill-opacity:1;"><g transform="translate(351.400065, 365.090909)"><path style="stroke:none" d="M 10.515625 0.140625 C 8.679688 0.140625 7.109375 -0.179688 5.796875 -0.828125 C 4.492188 -1.484375 3.503906 -2.394531 2.828125 -3.5625 C 2.148438 -4.738281 1.8125 -6.101562 1.8125 -7.65625 C 1.8125 -9.707031 2.28125 -11.609375 3.21875 -13.359375 C 4.15625 -15.109375 5.488281 -16.492188 7.21875 -17.515625 C 8.945312 -18.546875 10.96875 -19.0625 13.28125 -19.0625 C 14.738281 -19.0625 16.039062 -18.835938 17.1875 -18.390625 C 18.332031 -17.941406 19.222656 -17.300781 19.859375 -16.46875 L 18.875 -15.578125 C 17.613281 -17.054688 15.710938 -17.796875 13.171875 -17.796875 C 11.191406 -17.796875 9.441406 -17.335938 7.921875 -16.421875 C 6.410156 -15.515625 5.242188 -14.296875 4.421875 -12.765625 C 3.597656 -11.234375 3.1875 -9.546875 3.1875 -7.703125 C 3.1875 -5.679688 3.828125 -4.082031 5.109375 -2.90625 C 6.390625 -1.726562 8.226562 -1.140625 10.625 -1.140625 C 13.226562 -1.140625 15.3125 -1.894531 16.875 -3.40625 L 17.71875 -2.46875 C 16.882812 -1.632812 15.84375 -0.988281 14.59375 -0.53125 C 13.34375 -0.0820312 11.984375 0.140625 10.515625 0.140625 Z M 10.515625 0.140625 "/></g></g><g style="fill:#737373;fill-opacity:1;"><g transform="translate(370.112208, 365.090909)"><path style="stroke:none" d="M 7.46875 0.109375 C 5.550781 0.109375 4.03125 -0.421875 2.90625 -1.484375 C 1.78125 -2.546875 1.21875 -3.972656 1.21875 -5.765625 C 1.21875 -7.367188 1.5625 -8.8125 2.25 -10.09375 C 2.945312 -11.375 3.910156 -12.382812 5.140625 -13.125 C 6.367188 -13.863281 7.753906 -14.234375 9.296875 -14.234375 C 11.210938 -14.234375 12.734375 -13.703125 13.859375 -12.640625 C 14.984375 -11.585938 15.546875 -10.160156 15.546875 -8.359375 C 15.546875 -6.753906 15.195312 -5.304688 14.5 -4.015625 C 13.8125 -2.722656 12.851562 -1.710938 11.625 -0.984375 C 10.40625 -0.253906 9.019531 0.109375 7.46875 0.109375 Z M 7.578125 -1.109375 C 8.835938 -1.109375 9.96875 -1.414062 10.96875 -2.03125 C 11.96875 -2.644531 12.753906 -3.492188 13.328125 -4.578125 C 13.910156 -5.671875 14.203125 -6.90625 14.203125 -8.28125 C 14.203125 -9.769531 13.765625 -10.929688 12.890625 -11.765625 C 12.015625 -12.597656 10.785156 -13.015625 9.203125 -13.015625 C 7.929688 -13.015625 6.796875 -12.703125 5.796875 -12.078125 C 4.796875 -11.453125 4.003906 -10.59375 3.421875 -9.5 C 2.847656 -8.414062 2.5625 -7.195312 2.5625 -5.84375 C 2.5625 -4.34375 3 -3.175781 3.875 -2.34375 C 4.75 -1.519531 5.984375 -1.109375 7.578125 -1.109375 Z M 7.578125 -1.109375 "/></g></g><g style="fill:#737373;fill-opacity:1;"><g transform="translate(386.877437, 365.090909)"><path style="stroke:none" d="M 4.984375 -11.140625 C 5.609375 -12.171875 6.410156 -12.941406 7.390625 -13.453125 C 8.378906 -13.972656 9.578125 -14.234375 10.984375 -14.234375 L 10.734375 -12.90625 L 10.3125 -12.921875 C 8.695312 -12.921875 7.375 -12.441406 6.34375 -11.484375 C 5.320312 -10.535156 4.625 -9.125 4.25 -7.25 L 2.78125 0 L 1.4375 0 L 4.25 -14.125 L 5.578125 -14.125 Z M 4.984375 -11.140625 "/></g></g><g style="fill:#737373;fill-opacity:1;"><g transform="translate(397.288105, 365.090909)"><path style="stroke:none" d="M 10.953125 -14.234375 C 12.796875 -14.234375 14.273438 -13.703125 15.390625 -12.640625 C 16.503906 -11.585938 17.0625 -10.160156 17.0625 -8.359375 C 17.0625 -6.753906 16.710938 -5.304688 16.015625 -4.015625 C 15.328125 -2.722656 14.375 -1.710938 13.15625 -0.984375 C 11.9375 -0.253906 10.570312 0.109375 9.0625 0.109375 C 7.601562 0.109375 6.398438 -0.203125 5.453125 -0.828125 C 4.503906 -1.453125 3.847656 -2.347656 3.484375 -3.515625 L 1.734375 5.25 L 0.375 5.25 L 4.25 -14.125 L 5.578125 -14.125 L 5.03125 -11.390625 C 5.71875 -12.285156 6.566406 -12.984375 7.578125 -13.484375 C 8.585938 -13.984375 9.710938 -14.234375 10.953125 -14.234375 Z M 9.09375 -1.109375 C 10.351562 -1.109375 11.484375 -1.414062 12.484375 -2.03125 C 13.484375 -2.65625 14.265625 -3.507812 14.828125 -4.59375 C 15.398438 -5.675781 15.6875 -6.90625 15.6875 -8.28125 C 15.6875 -9.769531 15.25 -10.929688 14.375 -11.765625 C 13.5 -12.597656 12.269531 -13.015625 10.6875 -13.015625 C 9.425781 -13.015625 8.289062 -12.707031 7.28125 -12.09375 C 6.28125 -11.476562 5.492188 -10.625 4.921875 -9.53125 C 4.347656 -8.4375 4.0625 -7.207031 4.0625 -5.84375 C 4.0625 -4.34375 4.5 -3.175781 5.375 -2.34375 C 6.257812 -1.519531 7.5 -1.109375 9.09375 -1.109375 Z M 9.09375 -1.109375 "/></g></g><g style="fill:#737373;fill-opacity:1;"><g transform="translate(415.54056, 365.090909)"><path style="stroke:none" d="M 7.46875 0.109375 C 5.550781 0.109375 4.03125 -0.421875 2.90625 -1.484375 C 1.78125 -2.546875 1.21875 -3.972656 1.21875 -5.765625 C 1.21875 -7.367188 1.5625 -8.8125 2.25 -10.09375 C 2.945312 -11.375 3.910156 -12.382812 5.140625 -13.125 C 6.367188 -13.863281 7.753906 -14.234375 9.296875 -14.234375 C 11.210938 -14.234375 12.734375 -13.703125 13.859375 -12.640625 C 14.984375 -11.585938 15.546875 -10.160156 15.546875 -8.359375 C 15.546875 -6.753906 15.195312 -5.304688 14.5 -4.015625 C 13.8125 -2.722656 12.851562 -1.710938 11.625 -0.984375 C 10.40625 -0.253906 9.019531 0.109375 7.46875 0.109375 Z M 7.578125 -1.109375 C 8.835938 -1.109375 9.96875 -1.414062 10.96875 -2.03125 C 11.96875 -2.644531 12.753906 -3.492188 13.328125 -4.578125 C 13.910156 -5.671875 14.203125 -6.90625 14.203125 -8.28125 C 14.203125 -9.769531 13.765625 -10.929688 12.890625 -11.765625 C 12.015625 -12.597656 10.785156 -13.015625 9.203125 -13.015625 C 7.929688 -13.015625 6.796875 -12.703125 5.796875 -12.078125 C 4.796875 -11.453125 4.003906 -10.59375 3.421875 -9.5 C 2.847656 -8.414062 2.5625 -7.195312 2.5625 -5.84375 C 2.5625 -4.34375 3 -3.175781 3.875 -2.34375 C 4.75 -1.519531 5.984375 -1.109375 7.578125 -1.109375 Z M 7.578125 -1.109375 "/></g></g><g style="fill:#737373;fill-opacity:1;"><g transform="translate(432.305769, 365.090909)"><path style="stroke:none" d="M 4.984375 -11.140625 C 5.609375 -12.171875 6.410156 -12.941406 7.390625 -13.453125 C 8.378906 -13.972656 9.578125 -14.234375 10.984375 -14.234375 L 10.734375 -12.90625 L 10.3125 -12.921875 C 8.695312 -12.921875 7.375 -12.441406 6.34375 -11.484375 C 5.320312 -10.535156 4.625 -9.125 4.25 -7.25 L 2.78125 0 L 1.4375 0 L 4.25 -14.125 L 5.578125 -14.125 Z M 4.984375 -11.140625 "/></g></g><g style="fill:#737373;fill-opacity:1;"><g transform="translate(442.581245, 365.090909)"><path style="stroke:none" d="M 16.828125 -14.125 L 14.015625 0 L 12.71875 0 L 13.25 -2.765625 C 12.5625 -1.859375 11.707031 -1.148438 10.6875 -0.640625 C 9.675781 -0.140625 8.546875 0.109375 7.296875 0.109375 C 5.460938 0.109375 3.988281 -0.414062 2.875 -1.46875 C 1.769531 -2.53125 1.21875 -3.960938 1.21875 -5.765625 C 1.21875 -7.367188 1.554688 -8.8125 2.234375 -10.09375 C 2.921875 -11.382812 3.875 -12.394531 5.09375 -13.125 C 6.3125 -13.863281 7.679688 -14.234375 9.203125 -14.234375 C 10.660156 -14.234375 11.863281 -13.914062 12.8125 -13.28125 C 13.769531 -12.644531 14.421875 -11.753906 14.765625 -10.609375 L 15.46875 -14.125 Z M 7.578125 -1.109375 C 8.835938 -1.109375 9.96875 -1.414062 10.96875 -2.03125 C 11.96875 -2.644531 12.753906 -3.492188 13.328125 -4.578125 C 13.910156 -5.671875 14.203125 -6.90625 14.203125 -8.28125 C 14.203125 -9.769531 13.765625 -10.929688 12.890625 -11.765625 C 12.015625 -12.597656 10.785156 -13.015625 9.203125 -13.015625 C 7.929688 -13.015625 6.796875 -12.703125 5.796875 -12.078125 C 4.796875 -11.453125 4.003906 -10.59375 3.421875 -9.5 C 2.847656 -8.414062 2.5625 -7.195312 2.5625 -5.84375 C 2.5625 -4.34375 3 -3.175781 3.875 -2.34375 C 4.75 -1.519531 5.984375 -1.109375 7.578125 -1.109375 Z M 7.578125 -1.109375 "/></g></g><g style="fill:#737373;fill-opacity:1;"><g transform="translate(460.833701, 365.090909)"><path style="stroke:none" d="M 5.4375 -20.0625 L 6.78125 -20.0625 L 2.78125 0 L 1.4375 0 Z M 5.4375 -20.0625 "/></g></g></g></svg>